Coordinates
version=1
nRows=22
nColumns=24
inDegrees=yes

Units are S.I. units (second, meters, Newtons, ...)
Angles are in degrees.

endheader
time	pelvis_tilt	pelvis_list	pelvis_rotation	pelvis_tx	pelvis_ty	pelvis_tz	hip_flexion_r	hip_adduction_r	hip_rotation_r	knee_angle_r	ankle_angle_r	subtalar_angle_r	mtp_angle_r	hip_flexion_l	hip_adduction_l	hip_rotation_l	knee_angle_l	ankle_angle_l	subtalar_angle_l	mtp_angle_l	lumbar_extension	lumbar_bending	lumbar_rotation
      4.43500000	    -19.58232258	      1.53999186	     -6.13825988	     -1.36640326	     -0.04510122	     -0.28942241	      0.22149506	      0.32807940	     -3.93909817	    -13.59661266	     11.51704290	      4.70823621	      3.35162807	     47.52287154	     -4.83902372	    -20.40802619	    -10.99038319	     -1.00798608	     10.50932604	     24.11192447	     20.12570822	      1.02486092	     -2.42014991
      4.44000000	    -19.43464141	      1.84209921	     -6.20095454	     -1.35841157	     -0.04589426	     -0.29004259	     -0.13100217	     -0.22467750	     -4.14358458	    -14.14317448	     11.14171710	      5.36303823	      3.67206398	     47.41125793	     -4.55337060	    -20.25617495	    -11.57851156	     -1.25956446	      9.90503494	     24.00863397	     20.16045613	      0.72281957	     -2.32893188
      4.44500000	    -19.37555234	      2.08058501	     -6.33228360	     -1.35041846	     -0.04671229	     -0.29050806	     -0.37752849	     -0.66931344	     -4.06348981	    -14.69469767	     10.61042438	      5.71588297	      3.86942703	     47.41394419	     -4.40932087	    -20.17470310	    -12.28874633	     -1.56700890	      9.41131879	     23.99464596	     20.28436488	      0.50745734	     -2.17459674
      4.45000000	    -19.29760753	      2.35881322	     -6.40152328	     -1.34226481	     -0.04745795	     -0.29109014	     -0.62241449	     -1.18110700	     -4.12790164	    -15.28781129	     10.01653863	      6.16388497	      4.16347048	     47.37339022	     -4.16508123	    -20.00939707	    -12.99681609	     -2.04699861	      8.73525874	     23.99716160	     20.41398465	      0.23081021	     -2.08769709
      4.45500000	    -19.21893885	      2.64838771	     -6.46658154	     -1.33403347	     -0.04812130	     -0.29169450	     -0.83220294	     -1.71599515	     -4.21883664	    -15.92827746	      9.32093319	      6.62530554	      4.56184841	     47.31399291	     -3.89957948	    -19.80152252	    -13.70896992	     -2.68565854	      7.95819469	     24.02615466	     20.55499174	     -0.05798661	     -2.00833846
      4.46000000	    -19.09822297	      2.91340490	     -6.44880036	     -1.32577352	     -0.04870037	     -0.29245573	     -1.05637368	     -2.25776726	     -4.55291945	    -16.61042564	      8.50533832	      7.15438388	      5.43049292	     47.21815619	     -3.57333999	    -19.46380822	    -14.42876458	     -3.49104574	      7.04047112	     24.19992666	     20.64332609	     -0.35593636	     -2.02507875
      4.46500000	    -19.09253453	      3.28362265	     -6.58053616	     -1.31743492	     -0.04921711	     -0.29294069	     -1.09691104	     -2.85828766	     -4.36061481	    -17.34581772	      7.60315596	      7.38482251	      5.79570611	     47.21403579	     -3.30433741	    -19.34380374	    -15.16777245	     -4.41239354	      6.18788232	     24.12332668	     20.89411342	     -0.70188552	     -1.86666315
      4.47000000	    -19.01778952	      3.58368556	     -6.52285146	     -1.30911140	     -0.04966525	     -0.29385258	     -1.16870631	     -3.46524085	     -4.77703439	    -18.16234246	      6.57156031	      7.93470807	      6.95623293	     47.16042870	     -2.88879500	    -18.81473017	    -15.88582390	     -5.47772921	      4.95911669	     24.11300739	     21.04432267	     -1.03326436	     -1.92954182
      4.47500000	    -18.99949669	      3.97286927	     -6.51902595	     -1.30073445	     -0.05001956	     -0.29462207	     -1.14620678	     -4.13384819	     -4.84826095	    -18.96367971	      5.41532355	      8.18917806	      8.45019413	     47.16198349	     -2.46003650	    -18.42594435	    -16.62833422	     -6.61606683	      3.76663787	     23.87270330	     21.28058700	     -1.43764082	     -1.92208002
      4.48000000	    -18.98065685	      4.37676820	     -6.68340248	     -1.29241242	     -0.05020260	     -0.29510304	     -1.00179406	     -4.77455364	     -4.53733578	    -19.93121960	      4.15747756	      8.21474789	      8.82243477	     47.13430305	     -2.15168039	    -18.10999243	    -17.36994634	     -7.61461029	      2.64731672	     23.51035188	     21.52349847	     -1.79924388	     -1.71418966
      4.48500000	    -19.00619184	      4.72229324	     -6.56559861	     -1.28404174	     -0.05045826	     -0.29619710	     -0.80594146	     -5.44490329	     -4.89502719	    -20.92800564	      2.75840294	      8.63803679	     10.29578848	     47.20551594	     -1.61443961	    -17.27531157	    -18.16063967	     -8.60494309	      1.21654224	     22.68992832	     21.79598273	     -2.17100075	     -1.74255777
      4.49000000	    -18.96337800	      5.16679222	     -6.58361116	     -1.27570285	     -0.05045928	     -0.29695750	     -0.60841070	     -6.16889532	     -4.80358157	    -21.88291353	      1.10422969	      8.37204360	     13.08512512	     47.19135525	     -1.11880566	    -16.73365277	    -19.01395099	     -9.34734112	      0.16676194	     21.16689839	     22.01199523	     -2.62335955	     -1.68574711
      4.49500000	    -18.98080133	      5.53477435	     -6.57562019	     -1.26751789	     -0.05050708	     -0.29785703	     -0.23558342	     -6.81278938	     -4.68456350	    -23.08593642	     -0.47585935	      8.44115646	     14.04730575	     47.26402340	     -0.64865060	    -16.05702200	    -19.86567021	    -10.03862447	     -1.19049662	     20.20964558	     22.25620485	     -2.98288662	     -1.67757922
      4.50000000	    -18.99216907	      5.95156209	     -6.54080325	     -1.25917795	     -0.05045449	     -0.29874441	      0.15222736	     -7.49409302	     -4.52044158	    -24.23713947	     -2.31159260	      8.16165086	     16.02635339	     47.31413304	     -0.11088134	    -15.43299568	    -20.77128654	    -10.38581970	     -2.27720522	     18.46940907	     22.52718803	     -3.40695890	     -1.67572319
      4.50500000	    -18.96042910	      6.30985116	     -6.60580132	     -1.25117039	     -0.05031122	     -0.29958457	      0.65563755	     -8.10427060	     -4.17583299	    -25.58867762	     -4.16946061	      7.89675154	     17.53248344	     47.31938637	      0.32338976	    -14.78860251	    -21.67073421	    -10.57187269	     -3.35153081	     17.03026268	     22.69401020	     -3.72801495	     -1.53640599
      4.51000000	    -18.92810394	      6.70110762	     -6.60662955	     -1.24296863	     -0.05010581	     -0.30035474	      1.15150289	     -8.70723916	     -3.77792126	    -26.87985218	     -6.21969530	      7.27768017	     19.51159338	     47.30220466	      0.80957410	    -14.33680129	    -22.60160994	    -10.43764367	     -4.08245453	     15.17342128	     22.89819992	     -4.12501757	     -1.49843935
      4.51500000	    -18.87350881	      7.06255766	     -6.64364827	     -1.23498822	     -0.04985123	     -0.30109621	      1.74594913	     -9.25868818	     -3.27974498	    -28.32536579	     -8.28348658	      6.65298423	     21.04273797	     47.24505223	      1.24908631	    -13.93331065	    -23.49184303	    -10.18850980	     -4.77036235	     13.66273826	     23.04012674	     -4.47872614	     -1.40809267
      4.52000000	    -18.78332633	      7.38641101	     -6.73525768	     -1.22726794	     -0.04953827	     -0.30177880	      2.42474709	     -9.74062061	     -2.65692765	    -29.91123218	    -10.34318876	      5.99893293	     22.14301705	     47.13092459	      1.62099654	    -13.59629627	    -24.33770184	     -9.83569457	     -5.40163206	     12.45131124	     23.09912798	     -4.77795079	     -1.24602685
      4.52500000	    -18.73779829	      7.75221885	     -6.72418655	     -1.21936235	     -0.04923719	     -0.30242738	      3.14257820	    -10.22694544	     -2.08186055	    -31.46949522	    -12.48960501	      5.12957006	     23.47273541	     47.02112153	      2.06562607	    -13.43469228	    -25.15601666	     -9.24662408	     -5.67125891	     10.98358515	     23.24066369	     -5.17046909	     -1.22182724
      4.53000000	    -18.59693438	      8.07547889	     -6.78095378	     -1.21173907	     -0.04878835	     -0.30301206	      3.86952731	    -10.63342124	     -1.35609448	    -33.16201966	    -14.56083084	      4.34618312	     23.86712173	     46.75717268	      2.44932954	    -13.32817608	    -25.82173339	     -8.75957002	     -6.16122216	     10.40074034	     23.23193194	     -5.50592996	     -1.12286542
      4.53500000	    -18.58525427	      8.43019758	     -6.75983757	     -1.20419265	     -0.04851580	     -0.30358885	      4.80065140	    -11.05251506	     -0.78614253	    -34.93553316	    -16.57157720	      3.37318054	     24.76714665	     46.62395801	      2.85754852	    -13.32971964	    -26.52338975	     -7.99586131	     -6.10064132	      9.16632288	     23.34976790	     -5.89378258	     -1.07608890
      4.54000000	    -18.39923866	      8.76853732	     -6.71214023	     -1.19677909	     -0.04800386	     -0.30418665	      5.57654754	    -11.44647988	     -0.23843092	    -36.76057850	    -18.47592122	      2.44267582	     24.75368004	     46.22488574	      3.32680277	    -13.30685821	    -26.99722466	     -7.46906474	     -6.43292106	      9.03376139	     23.24857756	     -6.30684667	     -1.07858370
